<svg width="16" height="19" viewBox="0 0 16 19" fill="none" xmlns="http://www.w3.org/2000/svg">
<path fill-rule="evenodd" clip-rule="evenodd" d="M8 0C8.41413 0 8.8183 0.126594 9.15625 0.3625C9.49413 0.598401 9.74931 0.932218 9.88672 1.31719H14C14.5304 1.31719 15.039 1.52488 15.4141 1.89453C15.7891 2.26418 16 2.76552 16 3.28828V16.4289C16 16.9517 15.7891 17.453 15.4141 17.8227C15.039 18.1923 14.5304 18.4 14 18.4H2C1.4696 18.4 0.961004 18.1923 0.585937 17.8227C0.21087 17.453 5.74025e-06 16.9517 0 16.4289V3.28828C0 2.76552 0.210879 2.26418 0.585937 1.89453C0.96101 1.52488 1.46957 1.31719 2 1.31719H6.11328C6.25069 0.932218 6.50587 0.598401 6.84375 0.3625C7.18169 0.126594 7.58587 0 8 0ZM2.4 13.6V15.2H13.6V13.6H2.4ZM2.4 12H13.6V10.4H2.4V12ZM2.4 8.8H13.6V7.2H2.4V8.8ZM8 1.31719C7.82328 1.31719 7.65391 1.38628 7.52891 1.50938C7.40388 1.63259 7.33359 1.79996 7.33359 1.97422C7.33355 2.14828 7.26308 2.31513 7.13828 2.43828C7.01326 2.5615 6.84322 2.63125 6.66641 2.63125H5V4.60234C5.00004 4.77647 5.07043 4.94324 5.19531 5.06641C5.32028 5.18956 5.48969 5.25931 5.66641 5.25938H10.3336C10.5103 5.25931 10.6797 5.18956 10.8047 5.06641C10.9296 4.94324 11 4.77647 11 4.60234V2.63125H9.33359C9.15678 2.63125 8.98674 2.5615 8.86172 2.43828C8.73691 2.31513 8.66645 2.14828 8.66641 1.97422C8.66641 1.79996 8.59612 1.63259 8.47109 1.50938C8.34609 1.38628 8.17672 1.31719 8 1.31719Z" fill="currentColor"/>
</svg>
