<svg width="17" height="18" viewBox="0 0 17 18" fill="none" xmlns="http://www.w3.org/2000/svg">
<path d="M0 9V15.8328L3.71308 12.7637L0 9Z" fill="#C2C2C2"/>
<path d="M16.9412 15.8575V8.96899L13.198 12.7617L16.9412 15.8575Z" fill="#C2C2C2"/>
<path d="M1.05882 5.86914L0 6.70667V6.73759L1.05882 7.81102V5.86914Z" fill="#C2C2C2"/>
<path d="M15.8823 5.86914V7.77989L16.9411 6.70667L15.8823 5.86914Z" fill="#C2C2C2"/>
<path d="M0 17.8923V17.9999H16.9412V17.9192L8.45555 10.9023L0 17.8923Z" fill="#C2C2C2"/>
<path d="M8.47024 0L5.79565 2.11765H11.1467L8.47024 0Z" fill="#C2C2C2"/>
<path d="M7.95095 9.26051C8.24466 9.01847 8.66862 9.01847 8.96233 9.26051L11.9696 11.7462L14.8236 8.85329V5.02946V3.17651H12.4846H4.45768H2.11768V5.02946V8.88421L4.94156 11.7464L7.95095 9.26051Z" fill="#C2C2C2"/>
</svg>
