<svg viewBox="0 0 18 16" fill="none" xmlns="http://www.w3.org/2000/svg">
<path d="M1.52749 6.28835C0.699265 7.11633 0.174217 8.19787 0.0360363 9.35889C-0.101324 10.5207 0.156327 11.6946 0.769156 12.6918L0.653741 14.5219L2.49713 14.4069C3.56918 15.0518 4.83711 15.2924 6.0718 15.0858C7.30642 14.8784 8.42634 14.2384 9.22867 13.28C10.0309 12.3224 10.4625 11.1095 10.4454 9.86119C10.4422 5.40689 4.73388 3.00979 1.52749 6.28835ZM3.18963 10.6161C2.83932 10.604 2.56217 10.3172 2.56217 9.96802C2.56217 9.61884 2.83932 9.33205 3.18963 9.3199C3.54075 9.33205 3.81791 9.61884 3.81791 9.96802C3.81791 10.3172 3.54075 10.604 3.18963 10.6161ZM5.22482 10.6161C4.87451 10.604 4.59736 10.3172 4.59736 9.96802C4.59736 9.61884 4.87451 9.33205 5.22482 9.3199C5.57513 9.33205 5.8531 9.61884 5.8531 9.96802C5.8531 10.3172 5.57513 10.604 5.22482 10.6161ZM7.26001 10.6161C6.90971 10.604 6.63174 10.3172 6.63174 9.96802C6.63174 9.61884 6.90971 9.33205 7.26001 9.3199C7.61032 9.33205 7.88829 9.61884 7.88829 9.96802C7.88829 10.3172 7.61032 10.604 7.26001 10.6161ZM16.4713 1.51901C13.5192 -1.46235 8.53862 0.255158 7.68032 3.98187C8.94094 4.47201 10.013 5.34777 10.7429 6.48289C11.4728 7.618 11.8239 8.95467 11.7443 10.3011C13.0374 10.5644 14.3818 10.3311 15.5091 9.64651L17.3428 9.75669L17.2257 7.9225C17.841 6.92601 18.1011 5.75207 17.9645 4.59043C17.8272 3.42866 17.3012 2.34632 16.4713 1.51901ZM10.7379 5.84846C10.3876 5.8363 10.1097 5.54951 10.1097 5.20034C10.1097 4.85116 10.3876 4.56437 10.7379 4.55221C11.0882 4.56437 11.3662 4.85116 11.3662 5.20034C11.3662 5.54951 11.0882 5.8363 10.7379 5.84846ZM12.7731 5.84846C12.4228 5.8363 12.1449 5.54951 12.1449 5.20034C12.1449 4.85116 12.4228 4.56437 12.7731 4.55221C13.1234 4.56437 13.4014 4.85116 13.4014 5.20034C13.4014 5.54951 13.1234 5.8363 12.7731 5.84846ZM14.8083 5.84846C14.458 5.8363 14.18 5.54951 14.18 5.20034C14.18 4.85116 14.458 4.56437 14.8083 4.55221C15.1586 4.56437 15.4366 4.85116 15.4366 5.20034C15.4366 5.54951 15.1586 5.8363 14.8083 5.84846Z" fill="currentColor"/>
</svg>
