<svg width="18" height="15" viewBox="0 0 18 15" fill="none" xmlns="http://www.w3.org/2000/svg">
<path d="M17.0361 0C17.2916 0.000389575 17.5361 0.102524 17.7168 0.283203C17.8975 0.463883 17.9996 0.708359 18 0.963867V13.1787C17.9997 13.4343 17.8975 13.6796 17.7168 13.8604C17.5362 14.0408 17.2915 14.1422 17.0361 14.1426H0.963867C0.708524 14.1422 0.463849 14.0408 0.283203 13.8604C0.102458 13.6796 0.000315941 13.4343 0 13.1787V0.963867C0.000389512 0.708359 0.102524 0.463883 0.283203 0.283203C0.463883 0.102524 0.708359 0.000389512 0.963867 0H17.0361ZM9 2.89258C8.91475 2.89258 8.83274 2.92703 8.77246 2.9873C8.71245 3.04746 8.67882 3.1289 8.67871 3.21387V3.55273C7.39413 3.67778 6.42871 4.5422 6.42871 5.625C6.42871 6.7078 7.39413 7.57223 8.67871 7.69727V9.29199C8.0984 9.19318 7.71387 8.84087 7.71387 8.51758C7.71379 8.34731 7.64669 8.18394 7.52637 8.06348C7.40581 7.94292 7.24179 7.875 7.07129 7.875C6.90088 7.87504 6.73771 7.94299 6.61719 8.06348C6.49669 8.18397 6.42878 8.34718 6.42871 8.51758C6.42871 9.60038 7.39413 10.4648 8.67871 10.5898V10.9287C8.67875 11.0139 8.71221 11.096 8.77246 11.1562C8.83273 11.2165 8.91478 11.25 9 11.25C9.08522 11.25 9.16727 11.2165 9.22754 11.1562C9.28779 11.096 9.32125 11.0139 9.32129 10.9287V10.5898C10.6059 10.4648 11.5713 9.60038 11.5713 8.51758C11.5711 7.43491 10.6058 6.57035 9.32129 6.44531V4.85059C9.9016 4.9494 10.2861 5.30171 10.2861 5.625C10.2861 5.7953 10.3533 5.95858 10.4736 6.0791C10.5942 6.19966 10.7582 6.26758 10.9287 6.26758C11.0992 6.26754 11.2623 6.19963 11.3828 6.0791C11.5033 5.95855 11.5713 5.79546 11.5713 5.625C11.5713 4.5422 10.6059 3.67777 9.32129 3.55273V3.21387C9.32118 3.1289 9.28755 3.04746 9.22754 2.9873C9.16726 2.92703 9.08525 2.89258 9 2.89258ZM9.32129 7.74316C9.90145 7.84196 10.2859 8.19435 10.2861 8.51758C10.2861 8.84087 9.9016 9.19318 9.32129 9.29199V7.74316ZM8.67871 6.39941C8.0984 6.3006 7.71387 5.94829 7.71387 5.625C7.71392 5.30173 8.09844 4.9494 8.67871 4.85059V6.39941Z" fill="currentColor"/>
</svg>
