<svg width="14" height="14" viewBox="0 0 14 14" fill="none" xmlns="http://www.w3.org/2000/svg">
<path d="M11 8.31379e-09C11.7956 8.31379e-09 12.5587 0.316071 13.1213 0.87868C13.6839 1.44129 14 2.20435 14 3V9C14 9.64374 13.7929 10.2704 13.4093 10.7874C13.0258 11.3044 12.4861 11.6843 11.87 11.871C11.6832 12.4867 11.3034 13.0261 10.7866 13.4094C10.2698 13.7928 9.64345 13.9998 9 14H4.5C3.30653 14 2.16193 13.5259 1.31802 12.682C0.474106 11.8381 8.31379e-09 10.6935 8.31379e-09 9.5V5C-4.78926e-05 4.35638 0.206895 3.72981 0.590266 3.21283C0.973636 2.69585 1.51311 2.31586 2.129 2.129C2.31586 1.51311 2.69585 0.973636 3.21283 0.590266C3.72981 0.206895 4.35638 -4.78926e-05 5 8.31379e-09H11ZM2 3.27C1.402 3.616 1 4.26 1 5V9.5C1 10.4283 1.36875 11.3185 2.02513 11.9749C2.6815 12.6313 3.57174 13 4.5 13H9C9.74 13 10.383 12.597 10.729 12H5C4.20435 12 3.44129 11.6839 2.87868 11.1213C2.31607 10.5587 2 9.79565 2 9V3.27ZM6.5 3C6.36739 3 6.24021 3.05268 6.14645 3.14645C6.05268 3.24021 6 3.36739 6 3.5C6 3.63261 6.05268 3.75979 6.14645 3.85355C6.24021 3.94732 6.36739 4 6.5 4H9.293L5.146 8.147C5.09958 8.19349 5.06277 8.24866 5.03767 8.30938C5.01257 8.37009 4.99968 8.43516 4.99972 8.50085C4.99977 8.56655 5.01275 8.6316 5.03794 8.69228C5.06312 8.75295 5.10001 8.80808 5.1465 8.8545C5.19299 8.90092 5.24816 8.93773 5.30888 8.96283C5.36959 8.98793 5.43466 9.00082 5.50035 9.00078C5.56605 9.00073 5.6311 8.98775 5.69177 8.96256C5.75245 8.93738 5.80758 8.90049 5.854 8.854L10 4.707V7.5C10 7.63261 10.0527 7.75979 10.1464 7.85355C10.2402 7.94732 10.3674 8 10.5 8C10.6326 8 10.7598 7.94732 10.8536 7.85355C10.9473 7.75979 11 7.63261 11 7.5V3.5C11 3.36739 10.9473 3.24021 10.8536 3.14645C10.7598 3.05268 10.6326 3 10.5 3H6.5Z" fill="currentColor"/>
</svg>
