<svg viewBox="0 0 18 18"  xmlns="http://www.w3.org/2000/svg">
<path d="M14.5135 0H3.48658C1.56199 0 0 1.56305 0 3.48635V14.5125C0 15.9283 0.846199 17.1443 2.05625 17.69C2.28606 17.7977 2.53143 17.8767 2.78516 17.9294C2.80312 17.933 2.82466 17.9354 2.8462 17.9414C3.05446 17.9785 3.26871 18 3.48653 18H14.5134C14.7528 18 14.9886 17.9761 15.2148 17.9294H15.2184C16.8055 17.6015 18 16.1952 18 14.5138V3.48765C18 1.56319 16.4368 0.00130317 14.5134 0.00130317L14.5135 0ZM8.9982 5.36173C10.6128 5.36173 11.927 6.67342 11.927 8.29033C11.927 9.21307 11.4985 10.0365 10.8307 10.5727C10.328 10.9772 9.6912 11.2189 8.9982 11.2189C8.3052 11.2189 7.66485 10.9772 7.15977 10.5691C6.49429 10.0293 6.0694 9.20829 6.0694 8.28914C6.0694 6.67106 7.3836 5.36053 8.9982 5.36053V5.36173ZM3.46851 16.4682C3.63128 15.3408 4.15194 14.2995 4.9694 13.4809C5.52954 12.9208 6.19502 12.5007 6.92154 12.2398C7.49127 12.0316 8.10169 11.9239 8.72645 11.9239H9.27222C9.90299 11.9239 10.5098 12.034 11.0735 12.2398C12.8845 12.8957 14.2455 14.5138 14.5301 16.4682L3.46851 16.4682Z" fill="currentColor"/>
</svg>
