<svg width="18" height="18" viewBox="0 0 18 18" fill="none" xmlns="http://www.w3.org/2000/svg">
<path d="M18 8.1365V9.8635C17.995 10.0214 17.937 10.173 17.8352 10.2938C17.7335 10.4146 17.594 10.4976 17.4393 10.5294L16.0234 10.7739C15.9783 10.7817 15.9324 10.784 15.8867 10.7805C15.7209 11.4231 15.4654 12.0391 15.1278 12.6105C15.163 12.6402 15.1942 12.6743 15.2208 12.712L16.0489 13.8864C16.1359 14.0182 16.1759 14.1755 16.1624 14.3328C16.1489 14.4902 16.0827 14.6384 15.9745 14.7534L14.753 15.9745C14.638 16.0827 14.4898 16.1489 14.3325 16.1624C14.1751 16.1759 14.0178 16.1359 13.886 16.0489L12.712 15.2208C12.6743 15.1944 12.6402 15.1633 12.6105 15.1282C12.0331 15.469 11.4102 15.726 10.7605 15.8915C10.7727 15.9607 10.7727 16.0316 10.7605 16.1008L10.5427 17.3619C10.5066 17.538 10.4122 17.6967 10.2747 17.8125C10.1372 17.9283 9.96465 17.9943 9.78498 18H8.21502C8.03535 17.9943 7.86283 17.9283 7.72533 17.8125C7.58784 17.6967 7.49339 17.538 7.45725 17.3619L7.23948 16.1008C7.22707 16.0316 7.22707 15.9607 7.23948 15.8915C6.58978 15.726 5.9669 15.469 5.38952 15.1282C5.35984 15.1633 5.32573 15.1944 5.28804 15.2208L4.11399 16.0489C3.98212 16.1359 3.82476 16.1759 3.66736 16.1624C3.50996 16.1489 3.36172 16.0827 3.2466 15.9745L2.02514 14.7534C1.91708 14.6383 1.85099 14.4901 1.83755 14.3328C1.82411 14.1754 1.8641 14.0182 1.95107 13.8864L2.7792 12.712C2.80565 12.6744 2.83676 12.6403 2.87179 12.6105C2.53431 12.0391 2.27897 11.4231 2.11329 10.7805C2.06751 10.7839 2.02149 10.7817 1.97626 10.7739L0.560729 10.5294C0.405979 10.4977 0.266452 10.4147 0.164701 10.2939C0.0629513 10.173 0.00492413 10.0214 0 9.86351V8.13651C0.0049245 7.97861 0.0629517 7.82699 0.164702 7.70615C0.266452 7.58532 0.405979 7.50233 0.560729 7.47059L1.97626 7.22615C2.02147 7.21805 2.06754 7.21593 2.1133 7.21986C2.27913 6.57734 2.53447 5.96133 2.8718 5.38989C2.83685 5.3599 2.80575 5.32569 2.77921 5.28804L1.95108 4.114C1.86411 3.98214 1.82412 3.82482 1.83756 3.66744C1.851 3.51006 1.91708 3.36181 2.02515 3.24661L3.24661 2.02552C3.36177 1.91741 3.51 1.85125 3.66738 1.83775C3.82476 1.82424 3.9821 1.86417 4.114 1.95108L5.28805 2.77921C5.32573 2.80556 5.35984 2.83668 5.38952 2.8718C5.96101 2.53431 6.57717 2.27897 7.21986 2.11329C7.2158 2.06767 7.21779 2.02172 7.22579 1.97663L7.4706 0.560731C7.50233 0.405982 7.58532 0.266456 7.70616 0.164706C7.82699 0.0629554 7.97861 0.00492694 8.1365 0H9.8635C10.0214 0.00492461 10.173 0.062952 10.2939 0.164703C10.4147 0.266453 10.4977 0.40598 10.5294 0.560731L10.7739 1.97663C10.7818 2.02173 10.7839 2.06765 10.7801 2.11329C11.4228 2.27903 12.039 2.53437 12.6105 2.87179C12.6402 2.83667 12.6743 2.80555 12.712 2.7792L13.886 1.95107C14.0178 1.86415 14.1751 1.82422 14.3325 1.83773C14.4898 1.85124 14.638 1.9174 14.753 2.02552L15.9745 3.2466C16.0827 3.36171 16.1489 3.50996 16.1624 3.66736C16.1759 3.82476 16.1359 3.98212 16.0489 4.11399L15.2208 5.28804C15.1941 5.32569 15.1629 5.3599 15.1278 5.38989C15.4655 5.96123 15.7209 6.57726 15.8867 7.21985C15.9324 7.21592 15.9783 7.21803 16.0234 7.22615L17.4393 7.47059C17.594 7.50239 17.7335 7.5854 17.8352 7.70622C17.937 7.82704 17.995 7.97863 18 8.1365ZM12.0649 9.00019C12.065 8.394 11.8853 7.80141 11.5485 7.29737C11.2118 6.79332 10.7331 6.40045 10.1731 6.16844C9.61305 5.93642 8.9968 5.87569 8.40225 5.99391C7.8077 6.11214 7.26156 6.40401 6.8329 6.83262C6.40423 7.26124 6.11229 7.80734 5.99399 8.40187C5.87569 8.9964 5.93635 9.61266 6.1683 10.1727C6.40024 10.7328 6.79305 11.2115 7.29706 11.5483C7.80106 11.8851 8.39363 12.0649 8.99981 12.0649C9.81268 12.065 10.5923 11.7421 11.1671 11.1674C11.7419 10.5926 12.0649 9.81306 12.0649 9.00019Z" fill="#C2C2C2"/>
</svg>
