<svg width="15" height="12" viewBox="0 0 15 12" fill="none" xmlns="http://www.w3.org/2000/svg">
<path fill-rule="evenodd" clip-rule="evenodd" d="M4.5 0.000376516C3.70435 0.000376516 2.94129 0.316447 2.37868 0.879056C1.81607 1.44167 1.5 2.20473 1.5 3.00038C1.5 3.79603 1.81607 4.55909 2.37868 5.1217C2.94129 5.68431 3.70435 6.00038 4.5 6.00038C5.29565 6.00038 6.05871 5.68431 6.62132 5.1217C7.18393 4.55909 7.5 3.79603 7.5 3.00038C7.5 2.20473 7.18393 1.44167 6.62132 0.879056C6.05871 0.316447 5.29565 0.000376516 4.5 0.000376516ZM3 6.75038C2.20435 6.75038 1.44129 7.06645 0.87868 7.62906C0.316071 8.19166 0 8.95473 0 9.75038V10.5004C0 10.8982 0.158035 11.2797 0.43934 11.561C0.720644 11.8423 1.10218 12.0004 1.5 12.0004H7.5C7.89782 12.0004 8.27936 11.8423 8.56066 11.561C8.84196 11.2797 9 10.8982 9 10.5004V9.75038C9 8.95473 8.68393 8.19166 8.12132 7.62906C7.55871 7.06645 6.79565 6.75038 6 6.75038H3ZM8.4375 5.17913C8.796 4.53413 9 3.79163 9 3.00038C9.00016 2.23796 8.80661 1.48799 8.4375 0.820876C8.86336 0.417923 9.39796 0.148585 9.97523 0.0461482C10.5525 -0.0562887 11.1471 0.0126659 11.6856 0.24449C12.2241 0.476314 12.6829 0.860847 13.0053 1.35056C13.3276 1.84028 13.4994 2.41372 13.4994 3C13.4994 3.58629 13.3276 4.15972 13.0053 4.64944C12.6829 5.13916 12.2241 5.52369 11.6856 5.75551C11.1471 5.98734 10.5525 6.05629 9.97523 5.95386C9.39796 5.85142 8.86336 5.58208 8.4375 5.17913ZM10.0995 12.0004C10.3545 11.5594 10.5007 11.0471 10.5007 10.5004V9.75038C10.5021 8.6432 10.0939 7.57465 9.35475 6.75038H12C12.7956 6.75038 13.5587 7.06645 14.1213 7.62906C14.6839 8.19166 15 8.95473 15 9.75038V10.5004C15 10.8982 14.842 11.2797 14.5607 11.561C14.2794 11.8423 13.8978 12.0004 13.5 12.0004H10.0995Z" fill="currentColor"/>
</svg>
