<svg width="18" height="17" viewBox="0 0 18 17" fill="none" xmlns="http://www.w3.org/2000/svg">
<path d="M11.9811 0.107086L5.45882 4.65279C5.39204 4.70128 5.33652 4.77256 5.29817 4.85904C5.25982 4.94553 5.24006 5.04401 5.241 5.14402V11.0559C5.24006 11.156 5.25981 11.2544 5.29817 11.3409C5.33652 11.4274 5.39203 11.4987 5.45882 11.5472L11.9811 16.0929C12.1048 16.1729 12.2424 16.2092 12.3801 16.198C12.5178 16.1869 12.6509 16.1288 12.7662 16.0295C12.8814 15.9302 12.9749 15.7931 13.0372 15.6319C13.0996 15.4707 13.1287 15.2909 13.1216 15.1104V1.08958C13.1287 0.909096 13.0996 0.729321 13.0372 0.568097C12.9749 0.406874 12.8814 0.269806 12.7662 0.170497C12.6509 0.0711875 12.5178 0.0130885 12.3801 0.00196515C12.2424 -0.00915819 12.1048 0.0270809 11.9811 0.107086Z" fill="currentColor"/>
<path d="M4.11512 4.90503H1.12603C0.827388 4.90503 0.540981 5.06041 0.329811 5.337C0.11864 5.6136 3.98104e-06 5.98874 0 6.3799L0 9.82007C2.98574e-06 10.2112 0.118638 10.5864 0.329808 10.863C0.540978 11.1396 0.827386 11.295 1.12603 11.295H1.48832V14.4899C1.48832 14.8158 1.58717 15.1284 1.76311 15.3589C1.93905 15.5893 2.17767 15.7188 2.42649 15.7188C2.6753 15.7188 2.91393 15.5893 3.08987 15.3589C3.26581 15.1284 3.36465 14.8158 3.36465 14.4899V11.295H4.11512C4.21466 11.295 4.31012 11.2432 4.38051 11.151C4.4509 11.0588 4.49045 10.9337 4.49045 10.8033V5.39665C4.49045 5.26627 4.4509 5.14122 4.38051 5.04902C4.31012 4.95683 4.21466 4.90503 4.11512 4.90503Z" fill="currentColor"/>
<path d="M17.4371 7.36255H14.8102C14.6609 7.36255 14.5177 7.44023 14.4122 7.5785C14.3066 7.71677 14.2473 7.90431 14.2473 8.09985C14.2473 8.29539 14.3066 8.48293 14.4122 8.6212C14.5177 8.75947 14.6609 8.83715 14.8102 8.83715H17.4371C17.5864 8.83715 17.7295 8.75947 17.8351 8.6212C17.9407 8.48293 18 8.29539 18 8.09985C18 7.90431 17.9407 7.71677 17.8351 7.5785C17.7295 7.44023 17.5864 7.36255 17.4371 7.36255Z" fill="currentColor"/>
<path d="M15.0685 5.29761L17.3434 3.57724C17.4074 3.52883 17.4635 3.46438 17.5085 3.38756C17.5535 3.31075 17.5865 3.22307 17.6056 3.12955C17.6248 3.03602 17.6297 2.93848 17.62 2.84248C17.6104 2.74649 17.5864 2.65392 17.5494 2.57007C17.5125 2.48622 17.4632 2.41272 17.4046 2.35378C17.346 2.29484 17.279 2.2516 17.2076 2.22654C17.1362 2.20148 17.0617 2.19509 16.9885 2.20772C16.9152 2.22036 16.8445 2.25178 16.7805 2.3002L14.5056 4.02056C14.4416 4.06897 14.3854 4.13343 14.3404 4.21024C14.2954 4.28706 14.2624 4.37473 14.2433 4.46826C14.2242 4.56178 14.2193 4.65933 14.2289 4.75532C14.2386 4.85132 14.2626 4.94389 14.2995 5.02774C14.3365 5.11159 14.3857 5.18509 14.4443 5.24403C14.503 5.30297 14.5699 5.34621 14.6413 5.37127C14.7127 5.39633 14.7872 5.40272 14.8605 5.39008C14.9338 5.37744 15.0045 5.34602 15.0685 5.29761Z" fill="currentColor"/>
<path d="M17.3434 12.6226L15.0685 10.9022C15.0045 10.8538 14.9338 10.8224 14.8605 10.8098C14.7872 10.7971 14.7127 10.8035 14.6413 10.8286C14.5699 10.8536 14.503 10.8969 14.4443 10.9558C14.3857 11.0148 14.3365 11.0883 14.2995 11.1721C14.2626 11.256 14.2386 11.3485 14.2289 11.4445C14.2193 11.5405 14.2242 11.6381 14.2433 11.7316C14.2624 11.8251 14.2954 11.9128 14.3404 11.9896C14.3854 12.0664 14.4416 12.1309 14.5056 12.1793L16.7805 13.8997C16.8445 13.9481 16.9152 13.9795 16.9885 13.9921C17.0617 14.0048 17.1362 13.9984 17.2076 13.9733C17.279 13.9483 17.346 13.905 17.4046 13.8461C17.4632 13.7871 17.5125 13.7136 17.5494 13.6298C17.5864 13.5459 17.6104 13.4534 17.62 13.3574C17.6297 13.2614 17.6248 13.1638 17.6056 13.0703C17.5865 12.9768 17.5535 12.8891 17.5085 12.8123C17.4635 12.7355 17.4074 12.671 17.3434 12.6226Z" fill="currentColor"/>
</svg>
