<svg width="18" height="18" viewBox="0 0 18 18" fill="none" xmlns="http://www.w3.org/2000/svg">
<path d="M17.0835 7.01007L10.8291 0.755644C10.3178 0.270472 9.63977 0 8.9349 0C8.23003 0 7.55203 0.270472 7.0407 0.755644L0.786271 7.01007C0.283442 7.51228 0.000625629 8.19361 0 8.90427V15.3195C0 16.0304 0.282406 16.7122 0.785092 17.2149C1.28778 17.7176 1.96957 18 2.68047 18H6.25443V12.6391C6.25443 11.9282 6.53684 11.2464 7.03952 10.7437C7.54221 10.241 8.224 9.95859 8.9349 9.95859C9.6458 9.95859 10.3276 10.241 10.8303 10.7437C11.333 11.2464 11.6154 11.9282 11.6154 12.6391V18H15.1893C15.9002 18 16.582 17.7176 17.0847 17.2149C17.5874 16.7122 17.8698 16.0304 17.8698 15.3195V8.90427C17.8692 8.19361 17.5864 7.51228 17.0835 7.01007Z" fill="currentColor"/>
</svg>
