<svg width="17" height="12" viewBox="0 0 17 12" fill="none" xmlns="http://www.w3.org/2000/svg">
<path d="M12.4615 5.53848C13.736 5.53848 14.7692 4.50529 14.7692 3.23079C14.7692 1.95628 13.736 0.923096 12.4615 0.923096C11.187 0.923096 10.1538 1.95628 10.1538 3.23079C10.1538 4.50529 11.187 5.53848 12.4615 5.53848Z" fill="currentColor"/>
<path d="M13.0774 6.46143H12.7558C12.2666 6.46074 11.7826 6.56443 11.3346 6.76592C10.8867 6.96741 10.4845 7.26228 10.1538 7.63176C10.8004 8.5352 11.1486 9.62668 11.1476 10.7471V11.0768H16.6153V10.0878C16.6156 9.6115 16.5243 9.13982 16.3466 8.69973C16.1689 8.25963 15.9083 7.85976 15.5797 7.52296C15.2511 7.18617 14.861 6.91906 14.4316 6.73692C14.0023 6.55477 13.5421 6.46116 13.0774 6.46143Z" fill="currentColor"/>
<path d="M4.61542 5.53846C6.14483 5.53846 7.38465 4.29864 7.38465 2.76923C7.38465 1.23983 6.14483 0 4.61542 0C3.08602 0 1.84619 1.23983 1.84619 2.76923C1.84619 4.29864 3.08602 5.53846 4.61542 5.53846Z" fill="currentColor"/>
<path d="M5.43956 6.46143H4.71429C4.09519 6.46141 3.48216 6.57095 2.91019 6.78379C2.33821 6.99662 1.81851 7.30859 1.38074 7.70188C0.942978 8.09517 0.595727 8.56207 0.358818 9.07592C0.121909 9.58978 -1.76192e-05 10.1405 1.90971e-09 10.6967L1.90971e-09 11.9999H10.1538V10.6967C10.1534 9.57357 9.65661 8.49652 8.7726 7.70233C7.88859 6.90814 6.68974 6.4618 5.43956 6.46143Z" fill="currentColor"/>
</svg>
