<svg width="156" height="42" viewBox="0 0 156 42" fill="none" xmlns="http://www.w3.org/2000/svg">
<path d="M56.6936 0.217763C59.501 0.217763 61.7842 2.53259 61.7842 5.37875V36.6212C61.7842 39.4674 59.501 41.7822 56.6936 41.7822H5.30549C2.49809 41.7822 0.214797 39.4674 0.214797 36.6212V5.37875C0.214797 2.53259 2.49809 0.217763 5.30549 0.217763H56.6936ZM56.6936 0H5.30549C2.37566 0 0 2.40846 0 5.37875V36.6212C0 39.5915 2.37566 42 5.30549 42H56.6936C59.6234 42 61.999 39.5915 61.999 36.6212V5.37875C61.999 2.40846 59.6234 0 56.6936 0Z" fill="url(#paint0_linear_6241_2151)"/>
<path d="M150.695 0.217763C153.502 0.217763 155.785 2.53259 155.785 5.37875V36.6212C155.785 39.4674 153.502 41.7822 150.695 41.7822H99.3065C96.4991 41.7822 94.2158 39.4674 94.2158 36.6212V5.37875C94.2158 2.53259 96.4991 0.217763 99.3065 0.217763H150.695ZM150.695 0H99.3065C96.3766 0 94.001 2.40846 94.001 5.37875V36.6212C94.001 39.5915 96.3766 42 99.3065 42H150.695C153.624 42 156 39.5915 156 36.6212V5.37875C156 2.40846 153.624 0 150.695 0Z" fill="url(#paint1_linear_6241_2151)"/>
<path d="M66.6201 15.1436C68.5103 15.1436 70.044 17.5564 70.044 20.531C70.044 23.5057 68.5103 25.9185 66.6201 25.9185" stroke="white" stroke-opacity="0.5" stroke-miterlimit="10" stroke-linecap="round"/>
<path d="M67.6836 12.0859C70.6478 12.0859 73.0492 15.8663 73.0492 20.5308C73.0492 25.1953 70.6478 28.9757 67.6836 28.9757" stroke="white" stroke-opacity="0.4" stroke-width="2" stroke-miterlimit="10" stroke-linecap="round"/>
<path d="M69.4297 9.06348C73.4528 9.06348 76.7156 14.1962 76.7156 20.5287C76.7156 26.8613 73.4528 31.994 69.4297 31.994" stroke="white" stroke-opacity="0.3" stroke-width="2.5" stroke-miterlimit="10" stroke-linecap="round"/>
<path d="M58.0229 9.36611C58.0229 7.2061 56.2962 5.45508 54.1663 5.45508C52.0363 5.45508 50.3096 7.2061 50.3096 9.36611V32.6341C50.3096 34.7941 52.0363 36.5451 54.1663 36.5451C56.2962 36.5451 58.0229 34.7941 58.0229 32.6341V9.36611Z" fill="#FF2A71"/>
<path d="M105.832 7.6415C105.832 5.4815 104.105 3.73047 101.975 3.73047C99.8454 3.73047 98.1187 5.4815 98.1187 7.6415V34.361C98.1187 36.521 99.8454 38.2721 101.975 38.2721C104.105 38.2721 105.832 36.521 105.832 34.361V7.6415Z" fill="black" stroke="white" stroke-opacity="0.3" stroke-width="0.5" stroke-miterlimit="10"/>
<path d="M102.071 10.8968C103.359 10.8968 104.404 9.838 104.404 8.5319C104.404 7.2258 103.359 6.16699 102.071 6.16699C100.783 6.16699 99.7383 7.2258 99.7383 8.5319C99.7383 9.838 100.783 10.8968 102.071 10.8968Z" fill="#C32413"/>
<path d="M102.071 9.93227C102.833 9.93227 103.452 9.30537 103.452 8.53205C103.452 7.75873 102.833 7.13184 102.071 7.13184C101.308 7.13184 100.689 7.75873 100.689 8.53205C100.689 9.30537 101.308 9.93227 102.071 9.93227Z" fill="#FF8073"/>
<path d="M102.071 36.099C103.359 36.099 104.404 35.0402 104.404 33.734C104.404 32.4279 103.359 31.3691 102.071 31.3691C100.783 31.3691 99.7383 32.4279 99.7383 33.734C99.7383 35.0402 100.783 36.099 102.071 36.099Z" fill="white" fill-opacity="0.2"/>
<path d="M102.984 13.3466H101.152C101.096 13.3466 101.051 13.3009 101.051 13.2442C101.051 13.1876 101.096 13.1419 101.152 13.1419H102.984C103.04 13.1419 103.085 13.1876 103.085 13.2442C103.085 13.3009 103.04 13.3466 102.984 13.3466ZM104 13.8627C104 13.8061 103.955 13.7603 103.899 13.7603H100.237C100.181 13.7603 100.136 13.8061 100.136 13.8627C100.136 13.9193 100.181 13.965 100.237 13.965H103.899C103.955 13.965 104 13.9193 104 13.8627ZM102.984 14.4811C102.984 14.4245 102.939 14.3788 102.883 14.3788H101.255C101.199 14.3788 101.154 14.4245 101.154 14.4811C101.154 14.5377 101.199 14.5835 101.255 14.5835H102.883C102.939 14.5835 102.984 14.5377 102.984 14.4811ZM102.475 12.6258C102.475 12.5692 102.43 12.5234 102.374 12.5234H101.764C101.708 12.5234 101.663 12.5692 101.663 12.6258C101.663 12.6824 101.708 12.7281 101.764 12.7281H102.374C102.43 12.7281 102.475 12.6824 102.475 12.6258ZM102.475 15.0996C102.475 15.043 102.43 14.9972 102.374 14.9972H101.764C101.708 14.9972 101.663 15.043 101.663 15.0996C101.663 15.1562 101.708 15.2019 101.764 15.2019H102.374C102.43 15.2019 102.475 15.1562 102.475 15.0996ZM102.475 17.5755C102.475 17.5189 102.43 17.4732 102.374 17.4732H101.764C101.708 17.4732 101.663 17.5189 101.663 17.5755C101.663 17.6322 101.708 17.6779 101.764 17.6779H102.374C102.43 17.6779 102.475 17.6322 102.475 17.5755ZM103.085 16.9571C103.085 16.9005 103.04 16.8547 102.984 16.8547H101.152C101.096 16.8547 101.051 16.9005 101.051 16.9571C101.051 17.0137 101.096 17.0594 101.152 17.0594H102.984C103.04 17.0594 103.085 17.0137 103.085 16.9571ZM104 16.3387C104 16.282 103.955 16.2363 103.899 16.2363H100.237C100.181 16.2363 100.136 16.282 100.136 16.3387C100.136 16.3953 100.181 16.441 100.237 16.441H103.899C103.955 16.441 104 16.3953 104 16.3387ZM102.984 15.7202C102.984 15.6636 102.939 15.6179 102.883 15.6179H101.255C101.199 15.6179 101.154 15.6636 101.154 15.7202C101.154 15.7768 101.199 15.8226 101.255 15.8226H102.883C102.939 15.8226 102.984 15.7768 102.984 15.7202Z" fill="#C32413"/>
<path d="M102.593 19.0673H101.54C101.508 19.0673 101.482 19.0216 101.482 18.9649C101.482 18.9083 101.508 18.8626 101.54 18.8626H102.593C102.625 18.8626 102.651 18.9083 102.651 18.9649C102.651 19.0216 102.625 19.0673 102.593 19.0673ZM103.179 19.5834C103.179 19.5268 103.153 19.481 103.121 19.481H101.014C100.982 19.481 100.956 19.5268 100.956 19.5834C100.956 19.64 100.982 19.6857 101.014 19.6857H103.121C103.153 19.6857 103.179 19.64 103.179 19.5834ZM102.593 20.2018C102.593 20.1452 102.567 20.0995 102.535 20.0995H101.598C101.566 20.0995 101.54 20.1452 101.54 20.2018C101.54 20.2585 101.566 20.3042 101.598 20.3042H102.535C102.567 20.3042 102.593 20.2585 102.593 20.2018ZM102.301 18.3465C102.301 18.2899 102.275 18.2441 102.243 18.2441H101.893C101.86 18.2441 101.835 18.2899 101.835 18.3465C101.835 18.4031 101.86 18.4488 101.893 18.4488H102.243C102.275 18.4488 102.301 18.4031 102.301 18.3465ZM102.301 20.8225C102.301 20.7658 102.275 20.7201 102.243 20.7201H101.893C101.86 20.7201 101.835 20.7658 101.835 20.8225C101.835 20.8791 101.86 20.9248 101.893 20.9248H102.243C102.275 20.9248 102.301 20.8791 102.301 20.8225ZM102.301 23.2962C102.301 23.2396 102.275 23.1939 102.243 23.1939H101.893C101.86 23.1939 101.835 23.2396 101.835 23.2962C101.835 23.3529 101.86 23.3986 101.893 23.3986H102.243C102.275 23.3986 102.301 23.3529 102.301 23.2962ZM102.653 22.6778C102.653 22.6212 102.627 22.5755 102.595 22.5755H101.542C101.51 22.5755 101.484 22.6212 101.484 22.6778C101.484 22.7344 101.51 22.7801 101.542 22.7801H102.595C102.627 22.7801 102.653 22.7344 102.653 22.6778ZM103.179 22.0594C103.179 22.0027 103.153 21.957 103.121 21.957H101.014C100.982 21.957 100.956 22.0027 100.956 22.0594C100.956 22.116 100.982 22.1617 101.014 22.1617H103.121C103.153 22.1617 103.179 22.116 103.179 22.0594ZM102.593 21.4409C102.593 21.3843 102.567 21.3386 102.535 21.3386H101.598C101.566 21.3386 101.54 21.3843 101.54 21.4409C101.54 21.4975 101.566 21.5433 101.598 21.5433H102.535C102.567 21.5433 102.593 21.4975 102.593 21.4409Z" fill="#C32413"/>
<path d="M148.871 5.44434H142.481C141.378 5.44434 140.483 6.35105 140.483 7.46953V24.8536C140.483 25.9721 141.378 26.8788 142.481 26.8788H148.871C149.974 26.8788 150.869 25.9721 150.869 24.8536V7.46953C150.869 6.35105 149.974 5.44434 148.871 5.44434Z" stroke="white" stroke-opacity="0.1" stroke-width="0.5" stroke-miterlimit="10" stroke-linecap="round"/>
<path d="M122.264 5.44434H118.756C117.869 5.44434 117.149 6.17361 117.149 7.07321V25.2499C117.149 26.1495 117.869 26.8788 118.756 26.8788H122.264C123.151 26.8788 123.87 26.1495 123.87 25.2499V7.07321C123.87 6.17361 123.151 5.44434 122.264 5.44434Z" stroke="white" stroke-opacity="0.3" stroke-width="0.5" stroke-miterlimit="10" stroke-linecap="round"/>
<path d="M114.357 5.44434H110.85C109.963 5.44434 109.243 6.17361 109.243 7.07321V25.2499C109.243 26.1495 109.963 26.8788 110.85 26.8788H114.357C115.245 26.8788 115.964 26.1495 115.964 25.2499V7.07321C115.964 6.17361 115.245 5.44434 114.357 5.44434Z" stroke="white" stroke-opacity="0.6" stroke-width="0.5" stroke-miterlimit="10" stroke-linecap="round"/>
<path d="M135.601 16.4502H128.727C127.592 16.4502 126.672 17.3832 126.672 18.5342V35.8006C126.672 36.9516 127.592 37.8846 128.727 37.8846H135.601C136.736 37.8846 137.657 36.9516 137.657 35.8006V18.5342C137.657 17.3832 136.736 16.4502 135.601 16.4502Z" stroke="white" stroke-opacity="0.2" stroke-width="0.5" stroke-miterlimit="10" stroke-linecap="round"/>
<defs>
<linearGradient id="paint0_linear_6241_2151" x1="62" y1="21.1299" x2="-1.67654e-07" y2="21.1299" gradientUnits="userSpaceOnUse">
<stop stop-color="white"/>
<stop offset="1" stop-color="white" stop-opacity="0"/>
</linearGradient>
<linearGradient id="paint1_linear_6241_2151" x1="156.001" y1="21.1299" x2="94.001" y2="21.1299" gradientUnits="userSpaceOnUse">
<stop stop-color="white" stop-opacity="0"/>
<stop offset="1" stop-color="white"/>
</linearGradient>
</defs>
</svg>
