<svg width="116" height="42" viewBox="0 0 116 42" fill="none" xmlns="http://www.w3.org/2000/svg">
<path d="M19.7594 41H52.026M35.8927 29.2857V41M15.3595 20.5H56.426M15.3594 2.92857V26.3571C15.3594 27.1338 15.6684 27.8787 16.2185 28.428C16.7686 28.9772 17.5147 29.2857 18.2927 29.2857H53.4927C54.2707 29.2857 55.0168 28.9772 55.5669 28.428C56.117 27.8787 56.426 27.1338 56.426 26.3571V2.92857C56.426 2.15187 56.117 1.40697 55.5669 0.857759C55.0168 0.308545 54.2707 0 53.4927 0H18.2927C17.5147 0 16.7686 0.308545 16.2185 0.857759C15.6684 1.40697 15.3594 2.15187 15.3594 2.92857Z" stroke="white"/>
<path d="M47.7732 16C47.2868 16 46.8926 16.4477 46.8926 17C46.8926 17.5523 47.2868 18 47.7732 18L53.012 18C53.4983 18 53.8926 17.5523 53.8926 17C53.8926 16.4477 53.4983 16 53.012 16L47.7732 16Z" fill="#FF2A71"/>
<mask id="path-3-inside-1_6243_5879" fill="white">
<path d="M112.042 16.1296C114.079 16.1296 115.737 17.5075 115.737 19.2016V37.7984C115.737 39.4925 114.079 40.8704 112.042 40.8704H74.7434C72.7057 40.8704 71.0485 39.4925 71.0485 37.7984V19.2016C71.0485 17.5075 72.7057 16.1296 74.7434 16.1296H112.042ZM112.042 16H74.7434C72.6169 16 70.8926 17.4336 70.8926 19.2016V37.7984C70.8926 39.5664 72.6169 41 74.7434 41H112.042C114.168 41 115.893 39.5664 115.893 37.7984V19.2016C115.893 17.4336 114.168 16 112.042 16Z"/>
</mask>
<path d="M112.042 16.1296V17.1296C113.708 17.1296 114.737 18.2247 114.737 19.2016H115.737H116.737C116.737 16.7903 114.451 15.1296 112.042 15.1296V16.1296ZM115.737 19.2016H114.737V37.7984H115.737H116.737V19.2016H115.737ZM115.737 37.7984H114.737C114.737 38.7753 113.708 39.8704 112.042 39.8704V40.8704V41.8704C114.451 41.8704 116.737 40.2097 116.737 37.7984H115.737ZM112.042 40.8704V39.8704H74.7434V40.8704V41.8704H112.042V40.8704ZM74.7434 40.8704V39.8704C73.0772 39.8704 72.0485 38.7753 72.0485 37.7984H71.0485H70.0485C70.0485 40.2097 72.3342 41.8704 74.7434 41.8704V40.8704ZM71.0485 37.7984H72.0485V19.2016H71.0485H70.0485V37.7984H71.0485ZM71.0485 19.2016H72.0485C72.0485 18.2247 73.0772 17.1296 74.7434 17.1296V16.1296V15.1296C72.3342 15.1296 70.0485 16.7903 70.0485 19.2016H71.0485ZM74.7434 16.1296V17.1296H112.042V16.1296V15.1296H74.7434V16.1296ZM112.042 16V15H74.7434V16V17H112.042V16ZM74.7434 16V15C72.2454 15 69.8926 16.7164 69.8926 19.2016H70.8926H71.8926C71.8926 18.1508 72.9884 17 74.7434 17V16ZM70.8926 19.2016H69.8926V37.7984H70.8926H71.8926V19.2016H70.8926ZM70.8926 37.7984H69.8926C69.8926 40.2836 72.2454 42 74.7434 42V41V40C72.9884 40 71.8926 38.8492 71.8926 37.7984H70.8926ZM74.7434 41V42H112.042V41V40H74.7434V41ZM112.042 41V42C114.54 42 116.893 40.2836 116.893 37.7984H115.893H114.893C114.893 38.8492 113.797 40 112.042 40V41ZM115.893 37.7984H116.893V19.2016H115.893H114.893V37.7984H115.893ZM115.893 19.2016H116.893C116.893 16.7164 114.54 15 112.042 15V16V17C113.797 17 114.893 18.1508 114.893 19.2016H115.893Z" fill="url(#paint0_linear_6243_5879)" mask="url(#path-3-inside-1_6243_5879)"/>
<path d="M59.041 24.9062C60.0844 25.2674 60.3451 27.2533 59.6228 29.3404C58.9005 31.4275 57.468 32.8274 56.4246 32.4663" stroke="white" stroke-opacity="0.5" stroke-width="0.5" stroke-miterlimit="10" stroke-linecap="round"/>
<path d="M60.0225 22.0713C62.6328 22.9747 63.7226 26.6678 62.4581 30.3216C61.1935 33.9754 58.054 36.2048 55.4437 35.3014" stroke="white" stroke-opacity="0.4" stroke-width="0.75" stroke-miterlimit="10" stroke-linecap="round"/>
<path d="M61.9482 19.5625C65.6009 20.8267 67.0991 26.0824 65.2927 31.3019C63.4863 36.5215 59.0598 39.7268 55.4071 38.4626" stroke="white" stroke-opacity="0.3" stroke-width="1.1" stroke-miterlimit="10" stroke-linecap="round"/>
<path d="M77.8926 21.1513C77.8926 19.9632 76.9971 19 75.8926 19C74.788 19 73.8926 19.9632 73.8926 21.1513V35.8487C73.8926 37.0368 74.788 38 75.8926 38C76.9971 38 77.8926 37.0368 77.8926 35.8487V21.1513Z" fill="black" stroke="white" stroke-opacity="0.3" stroke-width="0.5" stroke-miterlimit="10"/>
<path d="M75.8936 22C76.4458 22 76.8936 21.5523 76.8936 21C76.8936 20.4477 76.4458 20 75.8936 20C75.3413 20 74.8936 20.4477 74.8936 21C74.8936 21.5523 75.3413 22 75.8936 22Z" fill="#C32413"/>
<path d="M75.8936 36C76.4458 36 76.8936 35.5523 76.8936 35C76.8936 34.4477 76.4458 34 75.8936 34C75.3413 34 74.8936 34.4477 74.8936 35C74.8936 35.5523 75.3413 36 75.8936 36Z" fill="white" fill-opacity="0.2"/>
<path d="M76.3677 23.4791H75.4194C75.3905 23.4791 75.3671 23.4525 75.3671 23.4195C75.3671 23.3866 75.3905 23.3599 75.4194 23.3599H76.3677C76.3966 23.3599 76.42 23.3866 76.42 23.4195C76.42 23.4525 76.3966 23.4791 76.3677 23.4791ZM76.8936 23.7795C76.8936 23.7465 76.8702 23.7199 76.8413 23.7199H74.9458C74.9169 23.7199 74.8936 23.7465 74.8936 23.7795C74.8936 23.8124 74.9169 23.839 74.9458 23.839H76.8413C76.8702 23.839 76.8936 23.8124 76.8936 23.7795ZM76.3677 24.1394C76.3677 24.1065 76.3444 24.0798 76.3155 24.0798H75.4728C75.4439 24.0798 75.4205 24.1065 75.4205 24.1394C75.4205 24.1724 75.4439 24.199 75.4728 24.199H76.3155C76.3444 24.199 76.3677 24.1724 76.3677 24.1394ZM76.1042 23.0596C76.1042 23.0266 76.0809 23 76.052 23H75.7362C75.7073 23 75.684 23.0266 75.684 23.0596C75.684 23.0925 75.7073 23.1191 75.7362 23.1191H76.052C76.0809 23.1191 76.1042 23.0925 76.1042 23.0596ZM76.1042 24.4994C76.1042 24.4664 76.0809 24.4398 76.052 24.4398H75.7362C75.7073 24.4398 75.684 24.4664 75.684 24.4994C75.684 24.5323 75.7073 24.5589 75.7362 24.5589H76.052C76.0809 24.5589 76.1042 24.5323 76.1042 24.4994ZM76.1042 25.9404C76.1042 25.9075 76.0809 25.8809 76.052 25.8809H75.7362C75.7073 25.8809 75.684 25.9075 75.684 25.9404C75.684 25.9734 75.7073 26 75.7362 26H76.052C76.0809 26 76.1042 25.9734 76.1042 25.9404ZM76.42 25.5805C76.42 25.5475 76.3966 25.5209 76.3677 25.5209H75.4194C75.3905 25.5209 75.3671 25.5475 75.3671 25.5805C75.3671 25.6134 75.3905 25.6401 75.4194 25.6401H76.3677C76.3966 25.6401 76.42 25.6134 76.42 25.5805ZM76.8936 25.2205C76.8936 25.1876 76.8702 25.161 76.8413 25.161H74.9458C74.9169 25.161 74.8936 25.1876 74.8936 25.2205C74.8936 25.2535 74.9169 25.2801 74.9458 25.2801H76.8413C76.8702 25.2801 76.8936 25.2535 76.8936 25.2205ZM76.3677 24.8606C76.3677 24.8276 76.3444 24.801 76.3155 24.801H75.4728C75.4439 24.801 75.4205 24.8276 75.4205 24.8606C75.4205 24.8935 75.4439 24.9202 75.4728 24.9202H76.3155C76.3444 24.9202 76.3677 24.8935 76.3677 24.8606Z" fill="#C32413"/>
<path d="M76.366 26.6388H75.4192C75.3902 26.6388 75.367 26.6033 75.367 26.5594C75.367 26.5154 75.3902 26.4799 75.4192 26.4799H76.366C76.395 26.4799 76.4182 26.5154 76.4182 26.5594C76.4182 26.6033 76.395 26.6388 76.366 26.6388ZM76.8936 27.0393C76.8936 26.9954 76.8704 26.9599 76.8414 26.9599H74.9457C74.9167 26.9599 74.8936 26.9954 74.8936 27.0393C74.8936 27.0832 74.9167 27.1187 74.9457 27.1187H76.8414C76.8704 27.1187 76.8936 27.0832 76.8936 27.0393ZM76.366 27.5192C76.366 27.4753 76.3428 27.4398 76.3138 27.4398H75.4713C75.4423 27.4398 75.4192 27.4753 75.4192 27.5192C75.4192 27.5632 75.4423 27.5986 75.4713 27.5986H76.3138C76.3428 27.5986 76.366 27.5632 76.366 27.5192ZM76.1032 26.0794C76.1032 26.0355 76.08 26 76.051 26H75.7361C75.7071 26 75.6839 26.0355 75.6839 26.0794C75.6839 26.1234 75.7071 26.1589 75.7361 26.1589H76.051C76.08 26.1589 76.1032 26.1234 76.1032 26.0794ZM76.1032 28.0008C76.1032 27.9569 76.08 27.9214 76.051 27.9214H75.7361C75.7071 27.9214 75.6839 27.9569 75.6839 28.0008C75.6839 28.0448 75.7071 28.0803 75.7361 28.0803H76.051C76.08 28.0803 76.1032 28.0448 76.1032 28.0008ZM76.1032 29.9206C76.1032 29.8766 76.08 29.8412 76.051 29.8412H75.7361C75.7071 29.8412 75.6839 29.8766 75.6839 29.9206C75.6839 29.9645 75.7071 30 75.7361 30H76.051C76.08 30 76.1032 29.9645 76.1032 29.9206ZM76.4201 29.4406C76.4201 29.3967 76.3969 29.3612 76.3679 29.3612H75.4211C75.3921 29.3612 75.3689 29.3967 75.3689 29.4406C75.3689 29.4846 75.3921 29.5201 75.4211 29.5201H76.3679C76.3969 29.5201 76.4201 29.4846 76.4201 29.4406ZM76.8936 28.9607C76.8936 28.9168 76.8704 28.8813 76.8414 28.8813H74.9457C74.9167 28.8813 74.8936 28.9168 74.8936 28.9607C74.8936 29.0046 74.9167 29.0401 74.9457 29.0401H76.8414C76.8704 29.0401 76.8936 29.0046 76.8936 28.9607ZM76.366 28.4808C76.366 28.4368 76.3428 28.4014 76.3138 28.4014H75.4713C75.4423 28.4014 75.4192 28.4368 75.4192 28.4808C75.4192 28.5247 75.4423 28.5602 75.4713 28.5602H76.3138C76.3428 28.5602 76.366 28.5247 76.366 28.4808Z" fill="#C32413"/>
<defs>
<linearGradient id="paint0_linear_6243_5879" x1="70.8926" y1="28.5" x2="107.393" y2="29" gradientUnits="userSpaceOnUse">
<stop offset="0.322115" stop-color="white"/>
<stop offset="0.850962" stop-color="white" stop-opacity="0"/>
</linearGradient>
</defs>
</svg>
