<svg width="18" height="18" viewBox="0 0 18 18" fill="none" xmlns="http://www.w3.org/2000/svg">
<path d="M8.43001 8.09501C10.2139 8.09501 11.66 6.64889 11.66 4.86501C11.66 3.08113 10.2139 1.63501 8.43001 1.63501C6.64613 1.63501 5.20001 3.08113 5.20001 4.86501C5.20001 6.64889 6.64613 8.09501 8.43001 8.09501Z" fill="#5E5E5E"/>
<path d="M10.5 14H14V14.7H10.5V14Z" fill="#5E5E5E"/>
<path d="M7.50002 15.0001V16.5001C7.50002 16.6327 7.55269 16.7599 7.64646 16.8537C7.74023 16.9474 7.86741 17.0001 8.00002 17.0001H16.5C16.6326 17.0001 16.7598 16.9474 16.8536 16.8537C16.9473 16.7599 17 16.6327 17 16.5001V11.5001C17 11.3675 16.9473 11.2403 16.8536 11.1466C16.7598 11.0528 16.6326 11.0001 16.5 11.0001H13V10.2651C13 10.1325 12.9473 10.0053 12.8536 9.91156C12.7598 9.8178 12.6326 9.76512 12.5 9.76512C12.3674 9.76512 12.2402 9.8178 12.1465 9.91156C12.0527 10.0053 12 10.1325 12 10.2651V11.0001H11V9.21012C10.1504 9.07109 9.29094 9.00086 8.43002 9.00012C6.53142 8.99204 4.65409 9.39993 2.93002 10.1951C2.64626 10.329 2.40687 10.5415 2.24025 10.8074C2.07364 11.0733 1.98679 11.3814 1.99002 11.6951V15.0001H7.50002ZM16 16.0001H8.50002V12.0001H12V12.2101C12 12.3427 12.0527 12.4699 12.1465 12.5637C12.2402 12.6574 12.3674 12.7101 12.5 12.7101C12.6326 12.7101 12.7598 12.6574 12.8536 12.5637C12.9473 12.4699 13 12.3427 13 12.2101V12.0001H16V16.0001Z" fill="#5E5E5E"/>
</svg>
