<svg width="18" height="18" viewBox="0 0 18 18" fill="none" xmlns="http://www.w3.org/2000/svg">
<path fill-rule="evenodd" clip-rule="evenodd" d="M6 2.99989C5.20435 2.99989 4.44129 3.31596 3.87868 3.87857C3.31607 4.44118 3 5.20424 3 5.99989C3 6.79554 3.31607 7.5586 3.87868 8.12121C4.44129 8.68382 5.20435 8.99989 6 8.99989C6.79565 8.99989 7.55871 8.68382 8.12132 8.12121C8.68393 7.5586 9 6.79554 9 5.99989C9 5.20424 8.68393 4.44118 8.12132 3.87857C7.55871 3.31596 6.79565 2.99989 6 2.99989ZM4.5 9.74989C3.70435 9.74989 2.94129 10.066 2.37868 10.6286C1.81607 11.1912 1.5 11.9542 1.5 12.7499V13.4999C1.5 13.8977 1.65804 14.2792 1.93934 14.5605C2.22064 14.8419 2.60218 14.9999 3 14.9999H9C9.39782 14.9999 9.77936 14.8419 10.0607 14.5605C10.342 14.2792 10.5 13.8977 10.5 13.4999V12.7499C10.5 11.9542 10.1839 11.1912 9.62132 10.6286C9.05871 10.066 8.29565 9.74989 7.5 9.74989H4.5ZM9.9375 8.17864C10.296 7.53364 10.5 6.79114 10.5 5.99989C10.5002 5.23747 10.3066 4.48751 9.9375 3.82039C10.3634 3.41744 10.898 3.1481 11.4752 3.04566C12.0525 2.94322 12.6471 3.01218 13.1856 3.244C13.7241 3.47583 14.1829 3.86036 14.5053 4.35008C14.8276 4.83979 14.9994 5.41323 14.9994 5.99951C14.9994 6.5858 14.8276 7.15923 14.5053 7.64895C14.1829 8.13867 13.7241 8.5232 13.1856 8.75502C12.6471 8.98685 12.0525 9.0558 11.4752 8.95337C10.898 8.85093 10.3634 8.58159 9.9375 8.17864ZM11.5995 14.9999C11.8545 14.5589 12.0007 14.0466 12.0007 13.4999V12.7499C12.0021 11.6427 11.5939 10.5742 10.8547 9.74989H13.5C14.2956 9.74989 15.0587 10.066 15.6213 10.6286C16.1839 11.1912 16.5 11.9542 16.5 12.7499V13.4999C16.5 13.8977 16.342 14.2792 16.0607 14.5605C15.7794 14.8419 15.3978 14.9999 15 14.9999H11.5995Z" fill="#5E5E5E"/>
</svg>
